<?xml version="1.0" standalone="no"?>
<!DOCTYPE svg PUBLIC "-//W3C//DTD SVG 20010904//EN"
 "http://www.w3.org/TR/2001/REC-SVG-20010904/DTD/svg10.dtd">
<svg version="1.0" xmlns="http://www.w3.org/2000/svg"
 width="512.000000pt" height="512.000000pt" viewBox="0 0 512.000000 512.000000"
 preserveAspectRatio="xMidYMid meet">

<g transform="translate(0.000000,512.000000) scale(0.100000,-0.100000)"
fill="#000000" stroke="none">
<path fill="#017571" d="M1276 4079 c-206 -22 -383 -96 -494 -208 -114 -115 -174 -243 -207
-441 -25 -148 -17 -387 18 -522 66 -251 222 -425 452 -503 151 -51 85 -49
1500 -54 l1320 -6 51 -23 c104 -47 148 -126 147 -267 0 -146 -43 -227 -142
-274 l-56 -26 -1555 -5 -1555 -5 -56 -26 c-95 -45 -139 -127 -139 -259 0 -93
23 -163 69 -209 76 -76 -51 -71 1716 -71 1346 0 1595 2 1666 15 275 48 454
174 556 392 54 117 74 216 80 401 7 194 -6 309 -48 437 -38 115 -77 181 -151
261 -76 80 -151 130 -259 171 -184 69 -122 66 -1569 73 l-1305 5 -40 22 c-83
45 -124 109 -139 219 -8 56 7 162 30 205 21 42 74 90 124 113 45 21 49 21
1605 26 l1560 5 50 26 c61 33 78 51 107 114 18 40 22 68 23 145 0 82 -4 103
-26 151 -15 32 -40 66 -58 79 -74 52 -8 50 -1660 49 -845 -1 -1572 -5 -1615
-10z"/>
</g>
</svg>
